# xmcd
# 
# Track frame offsets:
#     150
#     26111
#     46008
#     73055
#     95079
#     112863
#     135171
#     158883
#     176467
#     194616
#     215306
#     238762
#     241833
# 
# Disc length: 3799
# 
# Revision: 8
# Processed by: cddbd v1.5.2PL0 Copyright (c) Steve Scherf et al.
# Submitted via: fre:ac v1.0.31
# 
DISCID=ab0ed50d
DTITLE=Trans-Siberian Orchestra - Night Castle Disc 1
DYEAR=2009
DGENRE=Rock/Pop
TTITLE0=Night Enchanted
TTITLE1=Childhood Dreams
TTITLE2=Sparks
TTITLE3=The Mountain
TTITLE4=Night Castle
TTITLE5=The Safest Way Into Tomorrow
TTITLE6=Mozart And Memories
TTITLE7=Another Way You Can Die
TTITLE8=Toccata - Carpimus Noctem
TTITLE9=The Lion's Roar
TTITLE10=Dreams We Conceive
TTITLE11=Mother And Son
TTITLE12=There Was A Life
EXTD=
EXTT0=
EXTT1=
EXTT2=
EXTT3=
EXTT4=
EXTT5=
EXTT6=
EXTT7=
EXTT8=
EXTT9=
EXTT10=
EXTT11=
EXTT12=
PLAYORDER=
